<svg width="18" height="18" viewBox="0 0 18 18" fill="none" xmlns="http://www.w3.org/2000/svg">
<path d="M8.99986 6C9.09857 5.99943 9.19641 6.01835 9.28779 6.05567C9.37917 6.09299 9.46228 6.14799 9.53236 6.2175L14.0324 10.7175C14.1736 10.8587 14.2529 11.0503 14.2529 11.25C14.2529 11.4497 14.1736 11.6413 14.0324 11.7825C13.8911 11.9237 13.6996 12.0031 13.4999 12.0031C13.3001 12.0031 13.1086 11.9237 12.9674 11.7825L8.99986 7.8075L5.03236 11.775C4.88888 11.8979 4.70433 11.9621 4.51557 11.9548C4.32681 11.9475 4.14776 11.8692 4.01419 11.7357C3.88062 11.6021 3.80237 11.423 3.79508 11.2343C3.78779 11.0455 3.85199 10.861 3.97486 10.7175L8.47486 6.2175C8.61456 6.07894 8.80311 6.00083 8.99986 6Z" fill="#1D2328"/>
</svg>
