<svg width="18" height="18" viewBox="0 0 18 18" fill="none" xmlns="http://www.w3.org/2000/svg">
<g id="fi_2722987">
<g id="16">
<path id="Vector" d="M9.00014 12C8.90143 12.0006 8.80359 11.9817 8.71221 11.9443C8.62083 11.907 8.53772 11.852 8.46764 11.7825L3.96764 7.2825C3.82641 7.14127 3.74707 6.94973 3.74707 6.75C3.74707 6.55028 3.82641 6.35873 3.96764 6.2175C4.10887 6.07627 4.30041 5.99693 4.50014 5.99693C4.69987 5.99693 4.89141 6.07627 5.03264 6.2175L9.00014 10.1925L12.9676 6.225C13.1111 6.10213 13.2957 6.03793 13.4844 6.04522C13.6732 6.05251 13.8522 6.13076 13.9858 6.26433C14.1194 6.3979 14.1976 6.57695 14.2049 6.76571C14.2122 6.95447 14.148 7.13903 14.0251 7.2825L9.52514 11.7825C9.38544 11.9211 9.19689 11.9992 9.00014 12Z" fill="#1D2328"/>
</g>
</g>
</svg>
