<svg width="35" height="35" viewBox="0 0 35 35" fill="none" xmlns="http://www.w3.org/2000/svg">
<rect width="35" height="35" rx="17.5" fill="#C2CFF6"/>
<path d="M21.1475 25.2151C21.1479 25.338 21.124 25.4598 21.0771 25.5735C21.0303 25.6872 20.9614 25.7904 20.8744 25.8774C20.7875 25.9643 20.6842 26.0332 20.5706 26.0801C20.4569 26.1269 20.3351 26.1509 20.2121 26.1505H15.7741C15.5279 26.1462 15.2933 26.0453 15.1208 25.8697C14.9482 25.6941 14.8516 25.4578 14.8516 25.2116C14.8516 24.9654 14.9483 24.7291 15.1208 24.5535C15.2934 24.3779 15.528 24.2771 15.7741 24.2728H16.2725V15.2954H15.7741C15.5279 15.2911 15.2933 15.1903 15.1208 15.0147C14.9482 14.8391 14.8516 14.6027 14.8516 14.3566C14.8516 14.1104 14.9483 13.874 15.1208 13.6985C15.2934 13.5229 15.528 13.4221 15.7741 13.4178H18.7715C18.8948 13.4172 19.017 13.441 19.1311 13.4878C19.2452 13.5345 19.349 13.6033 19.4365 13.6902C19.524 13.777 19.5935 13.8803 19.6411 13.9941C19.6887 14.1078 19.7133 14.2299 19.7137 14.3532V24.2728H20.2121C20.3354 24.2732 20.4575 24.2979 20.5712 24.3455C20.685 24.393 20.7883 24.4626 20.8751 24.5501C20.962 24.6376 21.0308 24.7414 21.0775 24.8555C21.1243 24.9696 21.1481 25.0918 21.1475 25.2151ZM16.2725 10.5512C16.2772 11.0045 16.4606 11.4375 16.7827 11.7564C17.1049 12.0752 17.5398 12.254 17.9931 12.254C18.4463 12.254 18.8813 12.0752 19.2035 11.7564C19.5256 11.4376 19.709 11.0045 19.7137 10.5513C19.709 10.0981 19.5257 9.66501 19.2035 9.34618C18.8813 9.02736 18.4464 8.84852 17.9931 8.84851C17.5399 8.8485 17.1049 9.02733 16.7828 9.34615C16.4606 9.66496 16.2772 10.098 16.2725 10.5512Z" fill="#6958F0"/>
</svg>
