<svg width="100" height="100" viewBox="0 0 100 100" fill="none" xmlns="http://www.w3.org/2000/svg">
<g id="logo 2" clip-path="url(#clip0_133_16086)">
<path id="Vector" d="M86 0H14C6.26801 0 0 6.26801 0 14V86C0 93.732 6.26801 100 14 100H86C93.732 100 100 93.732 100 86V14C100 6.26801 93.732 0 86 0Z" fill="url(#paint0_linear_133_16086)"/>
<path id="Vector_2" d="M16.0098 36.4062H21.0371L26.75 54.2129L32.4629 36.4062H37.4902L28.7891 62H24.7109L16.0098 36.4062ZM12.9512 36.4062H18.1543L19.1211 56.0234V62H12.9512V36.4062ZM35.3457 36.4062H40.5664V62H34.3789V56.0234L35.3457 36.4062ZM59.0762 53.334H65.2285C65.1465 55.1152 64.666 56.6855 63.7871 58.0449C62.9082 59.4043 61.6895 60.4648 60.1309 61.2266C58.584 61.9766 56.7559 62.3516 54.6465 62.3516C52.9355 62.3516 51.4062 62.0645 50.0586 61.4902C48.7227 60.916 47.5859 60.0898 46.6484 59.0117C45.7227 57.9336 45.0137 56.627 44.5215 55.0918C44.041 53.5566 43.8008 51.8281 43.8008 49.9062V48.5176C43.8008 46.5957 44.0527 44.8672 44.5566 43.332C45.0723 41.7852 45.7988 40.4727 46.7363 39.3945C47.6855 38.3047 48.8223 37.4727 50.1465 36.8984C51.4707 36.3242 52.9414 36.0371 54.5586 36.0371C56.7852 36.0371 58.666 36.4355 60.2012 37.2324C61.7363 38.0293 62.9258 39.125 63.7695 40.5195C64.6133 41.9023 65.1113 43.4785 65.2637 45.248H59.1113C59.0879 44.2871 58.9238 43.4844 58.6191 42.8398C58.3145 42.1836 57.834 41.6914 57.1777 41.3633C56.5215 41.0352 55.6484 40.8711 54.5586 40.8711C53.7969 40.8711 53.1348 41.0117 52.5723 41.293C52.0098 41.5742 51.541 42.0195 51.166 42.6289C50.791 43.2383 50.5098 44.0293 50.3223 45.002C50.1465 45.9629 50.0586 47.123 50.0586 48.4824V49.9062C50.0586 51.2656 50.1406 52.4258 50.3047 53.3867C50.4688 54.3477 50.7324 55.1328 51.0957 55.7422C51.459 56.3516 51.9277 56.8027 52.502 57.0957C53.0879 57.377 53.8027 57.5176 54.6465 57.5176C55.584 57.5176 56.375 57.3711 57.0195 57.0781C57.6641 56.7734 58.1621 56.3164 58.5137 55.707C58.8652 55.0859 59.0527 54.2949 59.0762 53.334ZM80.0117 36.4062V62H73.8418V36.4062H80.0117ZM87.7109 36.4062V41.1699H66.3184V36.4062H87.7109Z" fill="white"/>
</g>
<defs>
<linearGradient id="paint0_linear_133_16086" x1="0" y1="0" x2="100" y2="123" gradientUnits="userSpaceOnUse">
<stop stop-color="#427BF5"/>
<stop offset="1" stop-color="#8B3AEB"/>
</linearGradient>
<clipPath id="clip0_133_16086">
<rect width="100" height="100" fill="white"/>
</clipPath>
</defs>
</svg>
